<?xml version="1.0" standalone="no"?>
<!DOCTYPE svg PUBLIC "-//W3C//DTD SVG 20010904//EN"
 "http://www.w3.org/TR/2001/REC-SVG-20010904/DTD/svg10.dtd">
<svg version="1.0" xmlns="http://www.w3.org/2000/svg"
 width="100.000000pt" height="100.000000pt" viewBox="0 0 1080.000000 721.000000"
 preserveAspectRatio="xMidYMid meet">
<metadata>
Created by potrace 1.16, written by Peter Selinger 2001-2019
</metadata>
<g transform="translate(0.000000,721.000000) scale(0.100000,-0.100000)"
fill="#000000" stroke="none">
<path d="M6602 6255 c-326 -72 -620 -460 -672 -886 -25 -207 43 -367 183 -430
52 -24 52 -24 523 -27 515 -3 548 0 657 54 240 121 425 372 512 696 63 237 35
425 -80 526 -87 77 -82 76 -600 79 -363 1 -473 -1 -523 -12z m819 -501 c105
-54 47 -250 -96 -327 -39 -21 -52 -22 -455 -25 -228 -2 -439 0 -469 3 -107 13
-141 95 -87 210 25 54 89 119 140 141 25 10 123 13 484 14 392 0 457 -2 483
-16z"/>
<path d="M9270 6233 c-53 -47 -106 -158 -174 -365 -61 -186 -35 -159 -232
-247 l-112 -49 10 36 c8 30 7 38 -8 49 -10 7 -30 13 -44 13 -24 0 -28 -7 -51
-77 l-25 -76 -126 -58 -126 -57 14 40 c18 53 18 53 -11 66 -58 26 -69 18 -96
-65 l-24 -76 -115 -54 c-171 -78 -161 -71 -183 -136 -10 -32 -17 -60 -16 -61
2 -2 69 11 149 29 317 71 585 104 709 86 40 -5 75 -11 77 -13 2 -2 -39 -132
-91 -289 -52 -156 -100 -314 -107 -350 l-12 -66 -166 -86 c-154 -80 -167 -89
-177 -122 -13 -43 -17 -41 142 -50 165 -8 175 -11 175 -43 0 -49 15 -57 41
-23 l25 31 94 -58 c52 -32 116 -71 142 -86 l47 -27 12 39 c11 38 10 42 -74
203 l-85 164 29 61 c15 34 67 187 115 340 48 154 90 283 94 288 11 11 87 -31
175 -96 75 -56 375 -353 465 -461 30 -36 58 -66 61 -66 4 -1 15 28 24 63 l17
64 -75 132 -75 132 24 71 c13 39 24 74 24 79 0 13 -70 40 -85 34 -7 -2 -16
-18 -20 -35 -4 -17 -10 -33 -15 -36 -4 -2 -38 47 -74 111 l-67 115 25 77 c25
72 25 78 9 90 -9 6 -29 12 -44 12 -21 0 -29 -7 -38 -32 -7 -18 -15 -28 -20
-22 -4 5 -41 65 -81 133 l-72 124 40 131 c87 281 108 420 69 479 -23 36 -39
34 -87 -10z"/>
<path d="M1817 3608 c-466 -1454 -847 -2647 -847 -2652 0 -13 166 1 267 23
360 79 678 333 834 665 20 45 135 385 254 756 119 371 223 696 231 721 l15 47
287 5 c308 5 375 14 522 70 221 83 417 238 543 428 60 91 123 218 133 269 l7
30 -617 0 c-339 0 -616 1 -616 3 0 1 107 335 238 742 l237 740 835 5 c823 6
836 6 919 28 364 97 642 337 780 674 17 42 31 79 31 82 0 3 -721 6 -1603 6
l-1603 0 -847 -2642z"/>
<path d="M5341 5264 c-381 -64 -720 -323 -887 -678 -27 -59 -242 -714 -608
-1856 -311 -971 -566 -1769 -566 -1773 0 -4 682 -7 1515 -7 l1514 0 12 43 c7
23 12 89 12 147 0 86 -5 120 -26 185 -49 149 -156 275 -294 348 -129 67 -120
67 -892 67 l-693 0 6 26 c7 28 1110 3467 1122 3497 5 15 -2 17 -62 16 -38 -1
-107 -7 -153 -15z"/>
<path d="M5741 4766 c-18 -22 -432 -1258 -429 -1281 3 -19 12 -20 202 -28 168
-6 203 -5 222 8 30 20 145 358 127 376 -7 7 -34 14 -61 17 l-50 4 65 195 c53
158 68 194 82 190 9 -2 289 -129 622 -281 333 -152 613 -276 622 -276 9 0 23
10 31 23 20 33 158 454 154 472 -2 10 -232 121 -633 305 l-630 289 -156 1
c-121 0 -159 -3 -168 -14z"/>
<path d="M8297 4182 c-8 -11 -997 -3093 -1004 -3124 -6 -29 6 -37 72 -54 23
-6 26 2 124 303 258 797 921 2863 921 2873 0 11 -106 14 -113 2z"/>
<path d="M8475 4118 c-51 -142 -1015 -3091 -1015 -3106 0 -12 8 -22 21 -25 16
-4 24 1 35 28 16 38 1024 3098 1024 3108 0 13 -61 7 -65 -5z"/>
<path d="M8268 2557 c-269 -821 -488 -1502 -488 -1513 0 -28 37 -39 49 -15 14
25 981 2970 981 2986 0 14 -29 35 -47 35 -4 0 -227 -672 -495 -1493z"/>
<path d="M8865 4018 c-37 -100 -945 -2959 -945 -2974 0 -16 10 -24 39 -32 52
-16 50 -17 67 23 13 33 929 2876 940 2920 4 17 -4 27 -35 48 -45 30 -59 33
-66 15z"/>
<path d="M5251 3291 c-11 -11 -102 -268 -221 -625 -164 -492 -200 -609 -190
-621 18 -22 256 -21 287 0 16 11 49 97 128 336 59 176 111 317 115 312 4 -4
60 -98 123 -208 83 -144 121 -201 136 -203 18 -3 80 47 240 196 l43 41 -6 55
c-14 107 58 208 171 243 45 14 92 18 214 17 137 0 160 -3 190 -20 50 -30 64
-65 50 -128 -27 -119 -104 -179 -251 -198 l-95 -13 -78 -230 c-42 -126 -75
-235 -72 -242 6 -16 84 -17 192 -3 286 38 542 340 648 765 23 92 27 123 23
214 -9 219 -85 298 -313 323 -202 22 -406 -15 -528 -96 -78 -52 -176 -159
-217 -238 l-36 -67 -114 191 c-63 105 -120 197 -128 204 -10 11 -49 14 -153
14 -123 0 -141 -2 -158 -19z"/>
</g>
</svg>
